<svg version="1.1" id="Layer_1" xmlns="http://www.w3.org/2000/svg" xmlns:xlink="http://www.w3.org/1999/xlink" x="0px" y="0px"
	 width="100%" viewBox="0 0 882 774" enable-background="new 0 0 882 774" xml:space="preserve">
<path fill="#FFFFFF" opacity="1.000000" stroke="none" 
	d="
M584.000000,775.000000 
	C389.333405,775.000000 195.166779,775.000000 1.000130,775.000000 
	C1.000087,517.000122 1.000087,259.000275 1.000043,1.000303 
	C294.999786,1.000202 588.999573,1.000202 882.999512,1.000101 
	C882.999634,258.999695 882.999634,516.999390 882.999817,774.999512 
	C783.500000,775.000000 684.000000,775.000000 584.000000,775.000000 
M218.975342,413.462738 
	C217.990189,415.910645 216.758682,418.290375 216.059296,420.817352 
	C210.962021,439.234802 206.418610,457.819672 200.788895,476.070526 
	C197.100616,488.027466 191.669235,499.533081 181.951691,507.971649 
	C161.057968,526.115356 131.743530,526.549072 109.832031,509.513123 
	C93.021049,496.442780 82.309319,479.019836 74.041153,459.797272 
	C57.969437,422.432281 53.291973,382.918091 52.136810,342.792847 
	C51.397934,317.127533 52.557617,291.509338 55.943741,266.036163 
	C59.358173,240.350006 65.042564,215.251953 77.037041,192.033203 
	C85.531166,175.590363 95.812065,160.306610 112.130936,150.685287 
	C129.649185,140.356812 148.089813,137.843704 166.698334,148.212097 
	C178.036957,154.529816 185.320587,164.648392 191.032669,175.989075 
	C199.395370,192.592300 204.338562,210.388275 209.079102,228.250229 
	C210.187729,232.427460 211.352585,236.590744 212.560730,240.740311 
	C213.735748,244.776062 216.530670,247.011383 220.686081,246.665619 
	C224.777206,246.325180 225.924667,242.957077 226.444824,239.520660 
	C226.766220,237.397247 226.795609,235.208649 226.749527,233.053741 
	C226.190582,206.907455 225.410080,180.764053 225.118622,154.615082 
	C225.032532,146.891968 221.837875,142.209976 215.027649,139.087601 
	C199.572311,132.001617 183.363937,128.028442 166.488785,126.486481 
	C138.214417,123.902908 111.425262,127.633972 87.222153,143.924011 
	C58.002037,163.590775 39.723186,191.420700 26.831289,223.409882 
	C13.050507,257.604706 8.502119,293.467804 8.392914,329.969940 
	C8.315160,355.959473 10.346738,381.846893 16.051340,407.311554 
	C23.385790,440.051666 35.459099,470.658203 57.561790,496.458771 
	C74.366287,516.074768 94.924149,529.874573 120.625923,535.237976 
	C136.278625,538.504333 152.004898,538.491577 167.836304,537.107605 
	C185.194275,535.590088 201.901733,531.742859 218.060608,525.058411 
	C226.570786,521.538086 229.734222,515.707886 229.822083,506.897675 
	C230.053040,483.741455 230.653641,460.588684 231.148392,437.435455 
	C231.272842,431.611511 231.973801,425.768005 231.659134,419.974274 
	C231.227600,412.028320 226.426804,409.459290 218.975342,413.462738 
M317.344360,263.842926 
	C297.576263,280.391205 285.036102,301.741425 277.006012,325.832855 
	C264.651459,362.898254 263.664917,400.683258 271.936066,438.644928 
	C278.515686,468.842957 291.315826,495.904785 314.573273,517.231812 
	C341.166962,541.618225 380.079285,545.070557 410.028107,525.056396 
	C432.823395,509.822815 446.766266,487.770020 455.895935,462.473755 
	C467.350403,430.736084 469.972504,398.009674 466.108154,364.604736 
	C462.227356,331.057983 450.777008,300.783508 428.801453,274.707794 
	C399.567596,240.019562 352.079498,235.058090 317.344360,263.842926 
M866.683228,295.886475 
	C865.840149,293.714661 865.038513,291.525665 864.147461,289.373688 
	C857.218689,272.639740 846.410645,259.244354 829.939392,251.188965 
	C805.171631,239.076050 772.295959,245.121353 750.517456,264.982025 
	C729.961182,283.728058 718.156799,307.411041 711.017212,333.727814 
	C703.608704,361.035797 702.602661,388.873932 704.875671,416.951691 
	C706.941406,442.469269 712.988098,466.853485 725.393799,489.372498 
	C736.102173,508.810669 750.457703,524.548401 771.551392,533.196045 
	C800.093689,544.897400 832.907593,535.949158 851.156128,511.349365 
	C860.879639,498.241547 866.007141,483.127747 869.840332,467.556366 
	C871.777771,459.686157 872.981018,451.598724 873.881958,443.538605 
	C874.077881,441.785706 871.825378,438.458832 870.230103,438.128479 
	C868.142273,437.696106 865.155762,439.014435 863.369507,440.535309 
	C861.942566,441.750366 861.562744,444.348633 861.009216,446.411072 
	C857.162231,460.745239 852.771912,474.820618 844.945068,487.642395 
	C832.093933,508.695160 804.582886,515.885681 783.358582,503.440338 
	C768.934570,494.982452 760.838684,481.503357 755.036560,466.515228 
	C745.869751,442.835632 744.244690,417.929382 744.007385,392.870514 
	C743.901306,381.668030 746.915344,378.729370 758.195740,378.725159 
	C791.529053,378.712708 824.862427,378.738739 858.195740,378.709259 
	C869.373779,378.699341 874.679138,373.812439 874.918762,362.770782 
	C875.405090,340.364624 873.507996,318.210571 866.683228,295.886475 
M525.322876,353.207001 
	C542.892883,411.491058 560.454346,469.777740 578.049500,528.054199 
	C579.436462,532.647949 580.394104,538.040649 586.806152,537.898193 
	C592.922913,537.762390 593.685425,532.446899 595.024231,528.064331 
	C608.046753,485.433289 620.991699,442.778473 634.007324,400.145294 
	C644.885620,364.512848 655.821533,328.897949 666.746704,293.279785 
	C671.388916,278.144958 679.398926,266.143463 695.890564,262.022919 
	C696.980835,261.750519 698.438110,261.230133 698.874573,260.385712 
	C700.091492,258.031097 701.782898,255.328201 701.486145,252.991501 
	C701.285217,251.409271 698.196594,249.845825 696.108643,248.958557 
	C694.362183,248.216431 692.194092,248.306641 690.212219,248.302979 
	C668.879211,248.263504 647.546082,248.259445 626.213135,248.308060 
	C624.067871,248.312943 621.867615,248.498398 619.791870,249.005325 
	C616.745117,249.749390 614.902405,252.244370 616.090027,254.974487 
	C617.121582,257.346039 619.471130,260.005341 621.816406,260.774475 
	C627.629333,262.680817 633.821350,263.390991 639.772217,264.926086 
	C648.380127,267.146606 651.705872,271.749817 650.885681,280.586517 
	C650.473328,285.028351 649.581787,289.496765 648.313049,293.777130 
	C633.424316,344.007721 618.436462,394.208984 603.421692,444.402069 
	C602.360840,447.948639 601.992310,452.847626 597.098267,452.816864 
	C592.167236,452.785889 591.950012,447.825623 590.926941,444.289429 
	C579.603638,405.149658 568.332336,365.994720 557.097656,326.829346 
	C552.833252,311.963226 548.475952,297.117828 544.578796,282.154205 
	C541.599426,270.714417 545.115662,265.569305 556.605713,263.180481 
	C557.418030,263.011566 558.259216,262.987000 559.083008,262.867340 
	C563.690491,262.197968 568.346191,261.749268 572.887451,260.770630 
	C576.368164,260.020508 578.186646,257.483032 578.020569,253.788116 
	C577.859009,250.192795 575.318787,249.063339 572.347412,248.577148 
	C570.716309,248.310287 569.032227,248.290909 567.371948,248.289978 
	C538.705627,248.274048 510.039337,248.277679 481.373016,248.280655 
	C480.206879,248.280777 479.030212,248.222565 477.876617,248.352737 
	C474.413361,248.743546 470.944458,249.536484 470.616241,253.766220 
	C470.315277,257.644775 472.787323,259.903290 476.372162,260.867462 
	C479.259735,261.644104 482.169861,262.416840 485.119507,262.867340 
	C493.906738,264.209442 499.651367,268.975342 502.278961,277.501923 
	C503.013153,279.884308 504.004852,282.187988 504.723541,284.574371 
	C511.534363,307.188782 518.311707,329.813293 525.322876,353.207001 
z"/>
<path fill="#EBCF51" opacity="1.000000" stroke="none" 
	d="
M219.250458,413.195618 
	C226.426804,409.459290 231.227600,412.028320 231.659134,419.974274 
	C231.973801,425.768005 231.272842,431.611511 231.148392,437.435455 
	C230.653641,460.588684 230.053040,483.741455 229.822083,506.897675 
	C229.734222,515.707886 226.570786,521.538086 218.060608,525.058411 
	C201.901733,531.742859 185.194275,535.590088 167.836304,537.107605 
	C152.004898,538.491577 136.278625,538.504333 120.625923,535.237976 
	C94.924149,529.874573 74.366287,516.074768 57.561790,496.458771 
	C35.459099,470.658203 23.385790,440.051666 16.051340,407.311554 
	C10.346738,381.846893 8.315160,355.959473 8.392914,329.969940 
	C8.502119,293.467804 13.050507,257.604706 26.831289,223.409882 
	C39.723186,191.420700 58.002037,163.590775 87.222153,143.924011 
	C111.425262,127.633972 138.214417,123.902908 166.488785,126.486481 
	C183.363937,128.028442 199.572311,132.001617 215.027649,139.087601 
	C221.837875,142.209976 225.032532,146.891968 225.118622,154.615082 
	C225.410080,180.764053 226.190582,206.907455 226.749527,233.053741 
	C226.795609,235.208649 226.766220,237.397247 226.444824,239.520660 
	C225.924667,242.957077 224.777206,246.325180 220.686081,246.665619 
	C216.530670,247.011383 213.735748,244.776062 212.560730,240.740311 
	C211.352585,236.590744 210.187729,232.427460 209.079102,228.250229 
	C204.338562,210.388275 199.395370,192.592300 191.032669,175.989075 
	C185.320587,164.648392 178.036957,154.529816 166.698334,148.212097 
	C148.089813,137.843704 129.649185,140.356812 112.130936,150.685287 
	C95.812065,160.306610 85.531166,175.590363 77.037041,192.033203 
	C65.042564,215.251953 59.358173,240.350006 55.943741,266.036163 
	C52.557617,291.509338 51.397934,317.127533 52.136810,342.792847 
	C53.291973,382.918091 57.969437,422.432281 74.041153,459.797272 
	C82.309319,479.019836 93.021049,496.442780 109.832031,509.513123 
	C131.743530,526.549072 161.057968,526.115356 181.951691,507.971649 
	C191.669235,499.533081 197.100616,488.027466 200.788895,476.070526 
	C206.418610,457.819672 210.962021,439.234802 216.059296,420.817352 
	C216.758682,418.290375 217.990189,415.910645 219.250458,413.195618 
z"/>
<path fill="#EBCF51" opacity="1.000000" stroke="none" 
	d="
M317.623047,263.622772 
	C352.079498,235.058090 399.567596,240.019562 428.801453,274.707794 
	C450.777008,300.783508 462.227356,331.057983 466.108154,364.604736 
	C469.972504,398.009674 467.350403,430.736084 455.895935,462.473755 
	C446.766266,487.770020 432.823395,509.822815 410.028107,525.056396 
	C380.079285,545.070557 341.166962,541.618225 314.573273,517.231812 
	C291.315826,495.904785 278.515686,468.842957 271.936066,438.644928 
	C263.664917,400.683258 264.651459,362.898254 277.006012,325.832855 
	C285.036102,301.741425 297.576263,280.391205 317.623047,263.622772 
M401.005920,507.444336 
	C404.700562,500.772675 409.139343,494.399414 411.955627,487.375549 
	C421.890015,462.599365 424.027222,436.351715 424.900848,410.037598 
	C425.724396,385.231476 425.406158,360.408875 421.943848,335.756348 
	C419.459839,318.069611 415.809296,300.679382 407.049927,284.820068 
	C397.883514,268.223846 384.567627,258.160004 364.826508,259.139893 
	C346.844482,260.032471 335.098450,270.342987 327.087280,285.579224 
	C314.525574,309.470001 311.599335,335.650909 310.213989,361.937592 
	C309.234344,380.525970 309.056946,399.264313 310.231567,417.827484 
	C311.350525,435.511108 313.886414,453.214233 317.357330,470.597717 
	C319.341461,480.534729 323.583160,490.291962 328.282990,499.366455 
	C344.183228,530.066895 381.970367,531.385742 401.005920,507.444336 
z"/>
<path fill="#EBD052" opacity="1.000000" stroke="none" 
	d="
M866.803772,296.264160 
	C873.507996,318.210571 875.405090,340.364624 874.918762,362.770782 
	C874.679138,373.812439 869.373779,378.699341 858.195740,378.709259 
	C824.862427,378.738739 791.529053,378.712708 758.195740,378.725159 
	C746.915344,378.729370 743.901306,381.668030 744.007385,392.870514 
	C744.244690,417.929382 745.869751,442.835632 755.036560,466.515228 
	C760.838684,481.503357 768.934570,494.982452 783.358582,503.440338 
	C804.582886,515.885681 832.093933,508.695160 844.945068,487.642395 
	C852.771912,474.820618 857.162231,460.745239 861.009216,446.411072 
	C861.562744,444.348633 861.942566,441.750366 863.369507,440.535309 
	C865.155762,439.014435 868.142273,437.696106 870.230103,438.128479 
	C871.825378,438.458832 874.077881,441.785706 873.881958,443.538605 
	C872.981018,451.598724 871.777771,459.686157 869.840332,467.556366 
	C866.007141,483.127747 860.879639,498.241547 851.156128,511.349365 
	C832.907593,535.949158 800.093689,544.897400 771.551392,533.196045 
	C750.457703,524.548401 736.102173,508.810669 725.393799,489.372498 
	C712.988098,466.853485 706.941406,442.469269 704.875671,416.951691 
	C702.602661,388.873932 703.608704,361.035797 711.017212,333.727814 
	C718.156799,307.411041 729.961182,283.728058 750.517456,264.982025 
	C772.295959,245.121353 805.171631,239.076050 829.939392,251.188965 
	C846.410645,259.244354 857.218689,272.639740 864.147461,289.373688 
	C865.038513,291.525665 865.840149,293.714661 866.803772,296.264160 
M786.500000,364.281067 
	C795.817688,364.202820 805.144653,364.357178 814.450623,363.984894 
	C825.055664,363.560638 833.249817,356.903320 835.134216,346.463348 
	C836.270630,340.166962 835.955627,333.575836 835.971985,327.116333 
	C836.016357,309.557434 833.374084,292.513367 825.976807,276.386322 
	C820.884338,265.284149 810.777100,258.553894 799.372742,259.076660 
	C786.768005,259.654419 777.264221,266.057465 770.094360,275.836884 
	C752.406006,299.963074 747.762451,328.258789 745.112427,357.051971 
	C744.718933,361.327057 747.094421,364.211884 752.054016,364.185547 
	C763.202209,364.126312 774.351257,364.238922 786.500000,364.281067 
z"/>
<path fill="#EBD052" opacity="1.000000" stroke="none" 
	d="
M525.210815,352.820923 
	C518.311707,329.813293 511.534363,307.188782 504.723541,284.574371 
	C504.004852,282.187988 503.013153,279.884308 502.278961,277.501923 
	C499.651367,268.975342 493.906738,264.209442 485.119507,262.867340 
	C482.169861,262.416840 479.259735,261.644104 476.372162,260.867462 
	C472.787323,259.903290 470.315277,257.644775 470.616241,253.766220 
	C470.944458,249.536484 474.413361,248.743546 477.876617,248.352737 
	C479.030212,248.222565 480.206879,248.280777 481.373016,248.280655 
	C510.039337,248.277679 538.705627,248.274048 567.371948,248.289978 
	C569.032227,248.290909 570.716309,248.310287 572.347412,248.577148 
	C575.318787,249.063339 577.859009,250.192795 578.020569,253.788116 
	C578.186646,257.483032 576.368164,260.020508 572.887451,260.770630 
	C568.346191,261.749268 563.690491,262.197968 559.083008,262.867340 
	C558.259216,262.987000 557.418030,263.011566 556.605713,263.180481 
	C545.115662,265.569305 541.599426,270.714417 544.578796,282.154205 
	C548.475952,297.117828 552.833252,311.963226 557.097656,326.829346 
	C568.332336,365.994720 579.603638,405.149658 590.926941,444.289429 
	C591.950012,447.825623 592.167236,452.785889 597.098267,452.816864 
	C601.992310,452.847626 602.360840,447.948639 603.421692,444.402069 
	C618.436462,394.208984 633.424316,344.007721 648.313049,293.777130 
	C649.581787,289.496765 650.473328,285.028351 650.885681,280.586517 
	C651.705872,271.749817 648.380127,267.146606 639.772217,264.926086 
	C633.821350,263.390991 627.629333,262.680817 621.816406,260.774475 
	C619.471130,260.005341 617.121582,257.346039 616.090027,254.974487 
	C614.902405,252.244370 616.745117,249.749390 619.791870,249.005325 
	C621.867615,248.498398 624.067871,248.312943 626.213135,248.308060 
	C647.546082,248.259445 668.879211,248.263504 690.212219,248.302979 
	C692.194092,248.306641 694.362183,248.216431 696.108643,248.958557 
	C698.196594,249.845825 701.285217,251.409271 701.486145,252.991501 
	C701.782898,255.328201 700.091492,258.031097 698.874573,260.385712 
	C698.438110,261.230133 696.980835,261.750519 695.890564,262.022919 
	C679.398926,266.143463 671.388916,278.144958 666.746704,293.279785 
	C655.821533,328.897949 644.885620,364.512848 634.007324,400.145294 
	C620.991699,442.778473 608.046753,485.433289 595.024231,528.064331 
	C593.685425,532.446899 592.922913,537.762390 586.806152,537.898193 
	C580.394104,538.040649 579.436462,532.647949 578.049500,528.054199 
	C560.454346,469.777740 542.892883,411.491058 525.210815,352.820923 
z"/>
<path fill="#FFFFFE" opacity="1.000000" stroke="none" 
	d="
M400.779175,507.720215 
	C381.970367,531.385742 344.183228,530.066895 328.282990,499.366455 
	C323.583160,490.291962 319.341461,480.534729 317.357330,470.597717 
	C313.886414,453.214233 311.350525,435.511108 310.231567,417.827484 
	C309.056946,399.264313 309.234344,380.525970 310.213989,361.937592 
	C311.599335,335.650909 314.525574,309.470001 327.087280,285.579224 
	C335.098450,270.342987 346.844482,260.032471 364.826508,259.139893 
	C384.567627,258.160004 397.883514,268.223846 407.049927,284.820068 
	C415.809296,300.679382 419.459839,318.069611 421.943848,335.756348 
	C425.406158,360.408875 425.724396,385.231476 424.900848,410.037598 
	C424.027222,436.351715 421.890015,462.599365 411.955627,487.375549 
	C409.139343,494.399414 404.700562,500.772675 400.779175,507.720215 
z"/>
<path fill="#FFFFFE" opacity="1.000000" stroke="none" 
	d="
M786.000000,364.281311 
	C774.351257,364.238922 763.202209,364.126312 752.054016,364.185547 
	C747.094421,364.211884 744.718933,361.327057 745.112427,357.051971 
	C747.762451,328.258789 752.406006,299.963074 770.094360,275.836884 
	C777.264221,266.057465 786.768005,259.654419 799.372742,259.076660 
	C810.777100,258.553894 820.884338,265.284149 825.976807,276.386322 
	C833.374084,292.513367 836.016357,309.557434 835.971985,327.116333 
	C835.955627,333.575836 836.270630,340.166962 835.134216,346.463348 
	C833.249817,356.903320 825.055664,363.560638 814.450623,363.984894 
	C805.144653,364.357178 795.817688,364.202820 786.000000,364.281311 
z"/>
</svg>